<?xml version="1.0" encoding="UTF-8"?>
<svg id="_0" xmlns="http://www.w3.org/2000/svg" viewBox="0 0 20 20">
	<style>
		path { fill: #000000; }
		@media (prefers-color-scheme: dark) {
		path { fill: #ffffff; }
		}
	</style>
	<path d="M10,20c5.52,0,10-4.48,10-10S15.52,0,10,0,0,4.48,0,10s4.48,10,10,10ZM9.44,2.02c4.41-.31,8.23,3.02,8.54,7.42.02.27-.07.53-.25.73-.37.41-1,.45-1.41.08-.91-.81-2.1-1.26-3.32-1.26-1.1,0-2-.9-2-2v-2h-2v2c0,1.1-.9,2-2,2h-2v2h2c1.1,0,2,.9,2,2v2h2v-2c0-1.1.9-2,2-2,.94,0,1.83.44,2.4,1.2.99,1.33.73,3.21-.6,4.2-1.23.92-2.71,1.47-4.24,1.58-4.41.31-8.23-3.02-8.54-7.42-.31-4.41,3.02-8.23,7.42-8.54Z" />
</svg>
